<?xml version="1.0" standalone="no"?>
<!DOCTYPE svg PUBLIC "-//W3C//DTD SVG 20010904//EN"
 "http://www.w3.org/TR/2001/REC-SVG-20010904/DTD/svg10.dtd">
<svg version="1.0" xmlns="http://www.w3.org/2000/svg"
 width="1851.000000pt" height="403.000000pt" viewBox="0 0 1851.000000 403.000000"
 preserveAspectRatio="xMidYMid meet">

<g transform="translate(0.000000,403.000000) scale(0.100000,-0.100000)"
fill="#6A8FCF" stroke="none">
<path d="M1380 3975 l0 -55 345 0 345 0 0 55 0 55 -345 0 -345 0 0 -55z"/>
<path d="M810 3745 l0 -55 915 0 915 0 0 55 0 55 -915 0 -915 0 0 -55z"/>
<path d="M120 3515 l0 -55 570 0 570 0 0 55 0 55 -570 0 -570 0 0 -55z"/>
<path d="M1730 3515 l0 -55 800 0 800 0 0 55 0 55 -800 0 -800 0 0 -55z"/>
<path d="M4824 3520 c-248 -65 -430 -251 -506 -516 -32 -113 -32 -305 0 -419
75 -260 237 -427 492 -507 64 -20 95 -23 215 -22 123 0 150 4 220 27 89 29
214 103 290 171 l50 44 -34 35 -33 35 -62 -51 c-128 -108 -217 -150 -357 -168
-216 -27 -421 58 -552 229 -95 124 -137 251 -137 417 0 195 64 360 185 480
121 120 253 175 420 175 157 0 291 -50 419 -156 l69 -57 34 36 c18 20 33 40
32 44 -1 17 -119 106 -191 143 -114 60 -205 80 -357 79 -89 0 -147 -6 -197
-19z"/>
<path d="M5867 3328 c76 -106 215 -303 310 -437 l173 -244 0 -289 0 -288 50 0
50 0 0 288 0 287 305 432 c168 237 305 434 305 437 0 3 -26 6 -58 6 l-57 0
-269 -385 c-148 -212 -271 -385 -275 -385 -3 0 -125 172 -271 383 l-265 382
-68 3 -67 3 137 -193z"/>
<path d="M7270 2794 l0 -726 363 5 c327 4 370 6 445 26 182 46 280 133 318
281 30 118 -1 235 -83 315 -38 37 -125 86 -193 110 l-35 12 44 23 c66 33 145
113 172 173 20 43 24 69 24 147 0 81 -4 102 -25 145 -47 97 -148 168 -282 200
-49 11 -137 15 -405 15 l-343 0 0 -726z m668 626 c134 -15 217 -64 265 -155
26 -50 29 -171 5 -226 -22 -50 -83 -116 -130 -140 -80 -41 -149 -49 -430 -49
l-268 0 0 290 0 290 238 0 c130 0 274 -4 320 -10z m120 -685 c124 -29 219
-101 242 -184 38 -136 -21 -265 -150 -331 -89 -45 -137 -50 -465 -50 l-305 0
0 290 0 290 308 0 c235 0 322 -4 370 -15z"/>
<path d="M8730 2795 l0 -725 515 0 515 0 0 50 0 50 -465 0 -465 0 0 295 0 295
415 0 415 0 0 45 0 45 -415 0 -415 0 0 290 0 290 460 0 460 0 0 45 0 45 -510
0 -510 0 0 -725z"/>
<path d="M10062 2798 l3 -723 53 -3 52 -3 0 305 0 306 238 0 237 -1 230 -302
230 -302 63 -3 c34 -2 62 1 62 6 0 5 -103 143 -230 308 -126 164 -226 301
-222 305 4 3 33 11 64 18 138 30 276 135 316 242 74 200 -4 411 -188 504 -116
59 -169 65 -557 65 l-353 0 2 -722z m739 618 c88 -19 157 -55 203 -106 44 -49
61 -86 71 -153 24 -159 -61 -293 -228 -357 -60 -23 -74 -24 -369 -28 l-308 -4
0 331 0 331 283 0 c203 0 300 -4 348 -14z"/>
<path d="M0 3285 l0 -55 285 0 285 0 0 55 0 55 -285 0 -285 0 0 -55z"/>
<path d="M1960 3285 l0 -55 745 0 745 0 0 55 0 55 -745 0 -745 0 0 -55z"/>
<path d="M0 3055 l0 -55 170 0 170 0 0 55 0 55 -170 0 -170 0 0 -55z"/>
<path d="M1730 3055 l0 -55 860 0 860 0 0 55 0 55 -860 0 -860 0 0 -55z"/>
<path d="M0 2825 l0 -55 170 0 170 0 0 55 0 55 -170 0 -170 0 0 -55z"/>
<path d="M1610 2825 l0 -55 920 0 920 0 0 55 0 55 -920 0 -920 0 0 -55z"/>
<path d="M0 2590 l0 -60 230 0 230 0 0 60 0 60 -230 0 -230 0 0 -60z"/>
<path d="M690 2590 l0 -60 170 0 170 0 0 60 0 60 -170 0 -170 0 0 -60z"/>
<path d="M1840 2590 l0 -60 803 2 802 3 3 58 3 57 -806 0 -805 0 0 -60z"/>
<path d="M0 2360 l0 -60 575 0 575 0 0 60 0 60 -575 0 -575 0 0 -60z"/>
<path d="M1960 2360 l0 -60 745 0 745 0 0 60 0 60 -745 0 -745 0 0 -60z"/>
<path d="M0 2130 l0 -60 690 0 690 0 0 60 0 60 -690 0 -690 0 0 -60z"/>
<path d="M2182 2133 l3 -58 633 -3 632 -2 0 60 0 60 -635 0 -636 0 3 -57z"/>
<path d="M0 1900 l0 -60 805 0 805 0 0 60 0 60 -805 0 -805 0 0 -60z"/>
<path d="M2530 1900 l0 -60 460 0 460 0 0 60 0 60 -460 0 -460 0 0 -60z"/>
<path d="M4895 1810 c-283 -45 -504 -252 -581 -545 -26 -101 -24 -302 4 -408
96 -351 415 -566 786 -527 131 14 241 55 347 132 61 44 129 106 129 117 0 5
-14 21 -32 34 l-32 25 -62 -51 c-79 -66 -154 -111 -230 -139 -51 -20 -79 -23
-204 -23 -127 1 -152 3 -201 23 -176 70 -313 213 -374 390 -35 101 -45 280
-21 391 25 119 87 234 170 317 127 127 245 175 426 175 162 0 298 -51 422
-160 25 -23 50 -41 55 -41 5 0 25 16 44 36 l34 35 -35 30 c-106 90 -214 148
-324 174 -79 19 -244 27 -321 15z"/>
<path d="M14525 1810 c-218 -35 -417 -184 -515 -385 -55 -112 -72 -182 -77
-321 -11 -251 61 -441 226 -596 133 -126 282 -180 496 -180 207 0 342 43 518
165 l57 40 0 278 0 279 -290 0 -290 0 0 -45 0 -45 240 0 240 0 0 -215 0 -214
-45 -31 c-134 -92 -293 -136 -460 -127 -127 7 -211 33 -307 95 -129 85 -206
195 -249 357 -28 106 -31 291 -6 385 39 146 141 299 248 373 118 81 301 115
467 87 81 -13 202 -68 275 -124 l49 -37 33 38 c18 21 31 41 28 46 -2 4 -32 26
-65 48 -76 52 -188 104 -254 117 -75 16 -250 22 -319 12z"/>
<path d="M7570 1088 c-183 -398 -335 -726 -337 -730 -2 -5 20 -8 50 -8 l54 0
89 197 90 198 431 3 430 2 90 -197 90 -198 57 -3 c31 -2 56 1 55 5 0 4 -150
332 -333 728 l-333 720 -50 3 -50 3 -333 -723z m572 180 l186 -413 -376 -3
c-206 -1 -377 -1 -379 2 -5 5 369 826 377 826 3 0 89 -186 192 -412z"/>
<path d="M5830 1070 l0 -720 55 0 55 0 0 340 0 340 483 -2 482 -3 3 -337 2
-338 50 0 50 0 0 720 0 720 -50 0 -50 0 -2 -332 -3 -333 -482 -3 -483 -2 0
335 0 335 -55 0 -55 0 0 -720z"/>
<path d="M8890 1070 l0 -720 480 0 480 0 0 45 0 45 -425 0 -425 0 0 675 0 675
-55 0 -55 0 0 -720z"/>
<path d="M10060 1070 l0 -720 480 0 480 0 0 45 0 45 -425 0 -425 0 0 675 0
675 -55 0 -55 0 0 -720z"/>
<path d="M11230 1070 l0 -720 520 0 520 0 0 45 0 45 -465 0 -465 0 0 295 0
295 415 0 415 0 0 45 0 45 -415 0 -415 0 0 290 0 290 460 0 460 0 0 45 0 45
-515 0 -515 0 0 -720z"/>
<path d="M12490 1070 l0 -720 50 0 50 0 2 642 3 641 505 -639 506 -639 42 -3
42 -3 0 720 0 721 -50 0 -50 0 -2 -627 -3 -628 -495 627 -495 627 -52 0 -53 1
0 -720z"/>
<path d="M15490 1070 l0 -720 520 0 520 0 0 45 0 45 -467 2 -468 3 -3 293 -2
292 415 0 415 0 0 45 0 45 -415 0 -415 0 0 290 0 290 465 0 465 0 0 45 0 45
-515 0 -515 0 0 -720z"/>
<path d="M17070 1070 l0 -720 55 0 55 0 0 720 0 720 -55 0 -55 0 0 -720z"/>
<path d="M17390 1745 l0 -45 255 0 255 0 0 -675 0 -675 50 0 50 0 0 675 0 675
255 0 255 0 0 45 0 45 -560 0 -560 0 0 -45z"/>
<path d="M0 1670 l0 -60 400 0 400 0 0 60 0 60 -400 0 -400 0 0 -60z"/>
<path d="M1040 1670 l0 -60 455 0 455 0 0 60 0 60 -455 0 -455 0 0 -60z"/>
<path d="M2990 1670 l0 -60 230 0 230 0 0 60 0 60 -230 0 -230 0 0 -60z"/>
<path d="M0 1440 l0 -60 345 0 345 0 0 60 0 60 -345 0 -345 0 0 -60z"/>
<path d="M1040 1440 l0 -60 630 0 630 0 0 60 0 60 -630 0 -630 0 0 -60z"/>
<path d="M2760 1440 l0 -60 115 0 115 0 0 60 0 60 -115 0 -115 0 0 -60z"/>
<path d="M3220 1440 l0 -60 115 0 116 0 -3 58 -3 57 -112 3 -113 3 0 -61z"/>
<path d="M110 1205 l0 -55 285 0 285 0 0 55 0 55 -285 0 -285 0 0 -55z"/>
<path d="M1040 1205 l0 -55 745 0 745 0 0 55 0 55 -745 0 -745 0 0 -55z"/>
<path d="M2880 1205 l0 -55 225 0 225 0 0 55 0 55 -225 0 -225 0 0 -55z"/>
<path d="M230 975 l0 -55 1150 0 1150 0 0 55 0 55 -1150 0 -1150 0 0 -55z"/>
<path d="M2760 975 l0 -55 230 0 230 0 0 55 0 55 -230 0 -230 0 0 -55z"/>
<path d="M350 745 l0 -55 630 0 630 0 0 55 0 55 -630 0 -630 0 0 -55z"/>
<path d="M2420 745 l0 -55 340 0 340 0 0 55 0 55 -340 0 -340 0 0 -55z"/>
<path d="M580 515 l0 -55 685 0 685 0 0 55 0 55 -685 0 -685 0 0 -55z"/>
<path d="M2420 515 l0 -55 225 0 225 0 0 55 0 55 -225 0 -225 0 0 -55z"/>
<path d="M16730 400 l0 -50 50 0 50 0 0 50 0 50 -50 0 -50 0 0 -50z"/>
<path d="M920 285 l0 -55 805 0 805 0 0 55 0 55 -805 0 -805 0 0 -55z"/>
<path d="M1270 55 l0 -55 455 0 455 0 0 55 0 55 -455 0 -455 0 0 -55z"/>
</g>
</svg>
