<?xml version="1.0" encoding="utf-8"?>
<!-- Generator: Adobe Illustrator 27.6.1, SVG Export Plug-In . SVG Version: 6.00 Build 0)  -->
<svg version="1.1" id="Layer_1" xmlns="http://www.w3.org/2000/svg" xmlns:xlink="http://www.w3.org/1999/xlink" x="0px" y="0px"
	 viewBox="0 0 287.6 148.6" style="enable-background:new 0 0 287.6 148.6;" xml:space="preserve">
<style type="text/css">
	.st0{fill:#698FCE;}
	.st1{fill:#3C4352;}
	.st2{fill:#6A8FCF;}
	.st3{fill:#3B4252;}
</style>
<g id="M">
	<path class="st0" d="M26.3,66.2v65.7c0,6-5,12-10.6,12.8c-6.9,1.1-12.9-2.5-15.1-8.8c-0.4-1.4-0.6-2.9-0.6-4.4V18.5
		c-0.2-6,3.8-11.3,9.6-12.7c5.6-1.7,11.7,0.8,14.4,6C30.8,24.1,37.3,36.6,43.9,49c9.9,18.6,19.7,37.2,29.5,55.8
		c0.4,0.8,0.5,2.2,1.7,2.3s1.4-1.3,1.9-2.1c11.3-20.9,22.7-41.8,34-62.8c5.3-9.8,10.5-19.5,15.8-29.3c3.4-6.2,9.2-8.8,15.3-7.2
		c6,1.7,10.1,7.2,10,13.4c0.1,24.2,0.1,48.4,0,72.6c0,5.7-3.5,10.7-8.8,12.7c-5.4,1.9-10.9,0.4-14.8-4.2c-2.8-3.2-2.9-7.1-3-10.9
		c-0.1-7.8,0-15.6,0-23.8c-2.2,0.8-2.5,2.5-3.2,3.8c-11.7,22.5-23.4,45.1-35.1,67.7c-4.2,8-13.1,10.2-19.9,5.2
		c-2-1.7-3.6-3.8-4.7-6.2c-11-21.9-22.1-43.9-33.1-65.8c-0.7-1.4-1.5-2.8-2.3-4.2L26.3,66.2z"/>
	<path class="st1" d="M138.6,144.8c-7.3-0.1-13.2-6-13.2-13.4c0.1-7.3,6-13.2,13.4-13.2c7.3,0.1,13.2,6,13.2,13.4
		c-0.1,7.3-5.9,13.1-13.2,13.2H138.6z"/>
</g>
<g id="S">
	<path class="st2" d="M235.2,1.8c15.3,0.2,28.9,4.8,40.2,15.3c4.7,4.4,8,9.3,5.6,16.2c-2.7,7.7-10.7,10.6-17.5,6.1
		c-3.2-2.1-6-5-9.3-6.9c-11-6.4-22.3-8.2-34.1-2.2c-3.1,1.6-5.7,4.2-7.1,7.4c-2.6,5.6-1,10.9,4.7,14.9c8,5.6,17.4,8.7,26.4,12.3
		c9,3.6,17.9,7.4,26,13c12.4,8.6,19.2,19.9,17.3,35.2c-2,16-10.9,27-26.3,32.3c-12,4.1-24.2,4.9-36-0.9c-6.4-3.1-8.6-8.7-6.5-14.9
		c2.1-6.2,7.3-8.8,14.4-7.7c4.8,0.7,9.6,1.5,14.5,0.4c7.9-1.7,13.5-8.1,13.5-15.6c0-4.3-2-7.4-5.3-9.8c-7.8-5.8-16.9-9-26-12.1
		c-8.6-3-17.2-6-25.1-10.7c-12.3-7.2-19.9-17.5-19.2-32.2c0.6-15,7.8-26.2,21-33.5C215.1,3.7,225.1,1.4,235.2,1.8z"/>
	<path class="st3" d="M196.2,129.8c-7.2-0.1-12.9-6-12.8-13.2s6-12.9,13.2-12.8s12.9,6,12.8,13.2c-0.1,7.1-5.8,12.8-12.8,12.8H196.2
		z"/>
</g>
</svg>
