<svg height="128" width="360" id="Layer_1" data-name="Layer 1" xmlns="http://www.w3.org/2000/svg" viewBox="0 0 401.55 195.45"><g id="M"><path d="M140.27,64.39v65.68c0,6-5,12-10.57,12.82-6.86,1.05-12.93-2.51-15.14-8.79a13.24,13.24,0,0,1-.57-4.42V16.74A12.7,12.7,0,0,1,123.59,4,12.23,12.23,0,0,1,138,10c6.8,12.33,13.3,24.82,19.89,37.26q14.78,27.91,29.51,55.84c.44.84.53,2.19,1.69,2.26s1.42-1.26,1.86-2.08q17-31.38,34-62.79c5.27-9.75,10.5-19.53,15.82-29.26C244.15,5.06,250,2.39,256.11,4a13.65,13.65,0,0,1,10,13.42q.12,36.28,0,72.55a13.46,13.46,0,0,1-8.82,12.7c-5.38,1.94-10.9.36-14.84-4.16-2.76-3.18-2.92-7.06-3-10.92-.09-7.82,0-15.64,0-23.82-2.22.77-2.49,2.53-3.17,3.84-11.73,22.54-23.37,45.13-35.14,67.66-4.16,8-13.15,10.2-19.91,5.25a16.36,16.36,0,0,1-4.67-6.21Q160,101.39,143.48,68.5c-.72-1.44-1.54-2.84-2.31-4.25Z" fill="#698fce"/><path d="M252.62,143a13.29,13.29,0,1,1,.2,0Z" fill="#3c4352"/></g><g id="S"><path d="M349.14,0C364.43.17,378,4.82,389.37,15.29c4.74,4.36,8,9.29,5.56,16.17-2.68,7.67-10.71,10.58-17.47,6.1-3.21-2.12-6-5-9.28-6.89-11-6.38-22.33-8.2-34.12-2.2a15.47,15.47,0,0,0-7.1,7.45c-2.63,5.61-1,10.91,4.67,14.89C339.68,56.45,349,59.49,358,63.08s17.94,7.42,26,13c12.39,8.56,19.17,19.92,17.26,35.22-2,16-10.87,27-26.26,32.29-12,4.1-24.18,4.85-36-.9-6.36-3.1-8.62-8.72-6.55-14.88s7.27-8.76,14.37-7.67c4.79.73,9.57,1.46,14.47.43,7.88-1.65,13.51-8.07,13.52-15.6,0-4.26-2-7.38-5.27-9.79-7.82-5.8-16.91-9-26-12.12-8.59-3-17.17-6-25.06-10.65-12.29-7.24-19.86-17.5-19.22-32.21.64-15,7.83-26.23,21-33.46A56.63,56.63,0,0,1,349.14,0Z" fill="#6a8fcf"/><path d="M310.18,128a13,13,0,1,1,.31,0Z" fill="#3b4252"/></g><text id="Slogan" transform="translate(93.66 187.41) scale(1.11 1)" font-size="32.19" fill="#83878b" font-family="OpenSans-SemiBold, OpenSans SemiBold" font-weight="600"><tspan letter-spacing="-0.03em">W</tspan><tspan x="26.17" y="0">ebSi</tspan><tspan x="84.01" y="0" letter-spacing="-0.01em">t</tspan><tspan x="94.47" y="0">e </tspan><tspan x="117.42" y="0" letter-spacing="-0.01em">c</tspan><tspan x="131.65" y="0">onsulting</tspan></text><g id="Lampadina"><path d="M45.77,158.33c-3.69,0-7.39.08-11.09,0-4.39-.11-6.59-2.24-6.66-6.71,0-2.33-.14-4.31-2.46-5.66-1.45-.85-2.68-2.67-2.34-4.18,1.17-5.14-.84-10.34.56-15.37a4.09,4.09,0,0,0-.34-3.54,22.48,22.48,0,0,1-3-10.32C19.72,99.27,13,88.32,7.14,77-1.25,60.7-3,44.25,5.91,27.52c9.6-18,30.86-27.68,50.32-22.79A47,47,0,0,1,91.38,48.82a53.43,53.43,0,0,1-7,27.94,200,200,0,0,0-8.92,18.33c-2.35,5.34-4.4,10.75-4.4,16.76a20,20,0,0,1-3,11.18,2.68,2.68,0,0,0-.25,3.09,7.16,7.16,0,0,1,0,7.19,3.68,3.68,0,0,0,.18,3.54c1.53,3.46.91,6.7-1.95,9a6.47,6.47,0,0,0-2.36,5.39c-.14,5-2.29,7-7.22,7C52.9,158.37,49.34,158.33,45.77,158.33ZM35.55,99.45V93.59c0-2-.29-4.8,2.5-4.87,3.15-.07,2.73,2.89,2.77,5q.13,6.26,0,12.53c0,2.12.71,3.09,2.87,2.93a22.73,22.73,0,0,1,3.69,0c2.68.27,3.67-.83,3.56-3.57-.18-4-.1-8.08,0-12.11,0-2-.67-4.84,2.35-4.84S56,91.62,56,93.79v12.53c0,1.22-.24,2.68,1.58,2.84s3.39.53,3.29,2.79c-.09,2-1.68,2.08-3.21,2.48-3,.8-1.28,3.44-1.61,5.24s1.1,2.14,2.59,2.24c4.52.22,6.92-2.11,7.09-8.54.24-9,3.29-17.13,7.11-25,2.59-5.37,5.35-10.66,8-16a46.3,46.3,0,0,0,4.72-29.89c-3.91-21.58-26-37.25-46.61-33C12.83,14.86-1.21,41.1,8.22,66.83c2.46,6.7,6.59,12.51,9.39,19,3.77,8.63,8.18,17,8.15,26.82a13.94,13.94,0,0,0,2.2,7.54c1.55,2.4,3.9,1.67,6,1.56,2.39-.13,1.46-2.23,1.58-3.59.18-2,.31-4-2.7-3.94A2.22,2.22,0,0,1,30.6,112a1.27,1.27,0,0,1,0-.28,2.21,2.21,0,0,1,2-2.42,1.74,1.74,0,0,1,.32,0c2.67,0,2.7-1.66,2.65-3.61S35.55,101.53,35.55,99.45Zm10.16,27.64H32.2c-1.89,0-3.86.2-4,2.53-.18,2.55,2,2.69,3.75,2.7q13.93.12,27.85,0c1.66,0,3.54-.14,3.56-2.46,0-2.48-1.84-2.77-3.73-2.78Zm.35,10.64H31.69c-1.69,0-3.59,0-3.49,2.4.09,2.09,1.72,2.58,3.55,2.58h28.3c1.86,0,3.39-.54,3.3-2.77s-1.72-2.23-3.3-2.23Zm-.4,15.17H56.29c1.9,0,2.19-1.12,2.19-2.73s-.65-2.24-2.19-2.24H35.42c-1.73,0-2.39.87-2.42,2.58s.72,2.48,2.44,2.45c3.41-.09,6.82-.05,10.22-.06Zm-.07-31c2.37-.29,5.43,1.29,5.49-3.6,0-4.47-2.38-4-5.15-4s-5.62-.68-5.49,4.12c0,4.57,2.82,3.27,5.15,3.47Z" fill="#83878b"/><path d="M45.72,16.45c18.18-.89,33.63,13.37,34.5,31.87S67.08,82.53,48.9,83.42q-1.59.08-3.18,0c-18.18-.89-32.2-16.61-31.32-35.1A33.23,33.23,0,0,1,45.72,16.45ZM73.51,50A28,28,0,0,0,45.76,21.75a28.23,28.23,0,0,0-.28,56.45,28,28,0,0,0,28-28V50Z" fill="#84888c"/><path d="M40.28,67.68c-1.81-.37-2.55-1.56-1.89-3.57q4.83-14.8,9.69-29.58c.6-1.83,1.79-2.87,3.72-2.16s1.78,2.24,1.26,3.81L43.58,65C43.08,66.49,42.42,67.82,40.28,67.68Z" fill="#83878b"/><path d="M68.42,49.66c.07,1.6-.89,2.44-1.75,3.35-2,2.06-4.07,4.12-6.13,6.15-1.1,1.12-2.49,1.42-3.67.32-1.4-1.26-1-2.68.1-4,1.53-1.91,4.63-3.15,4.53-5.59s-3.14-3.6-4.65-5.59c-1-1.21-1.26-2.49-.14-3.74a2.07,2.07,0,0,1,2.93-.42l0,0c2.91,2.72,5.65,5.59,8.41,8.49C68.35,48.91,68.35,49.43,68.42,49.66Z" fill="#85898e"/><path d="M35.46,57.22a2.53,2.53,0,0,1-1.1,2.47,2.41,2.41,0,0,1-3.05-.24q-3.86-3.73-7.56-7.66a2.56,2.56,0,0,1-.18-3.57,1.62,1.62,0,0,1,.18-.19c2.37-2.51,4.8-5,7.26-7.39a2.42,2.42,0,0,1,3.43-.36,2.61,2.61,0,0,1,.24.23c1.17,1.12.87,2.49,0,3.75-1.53,2.09-5,3.36-4.69,5.87.27,2,3.07,3.68,4.69,5.59A5.49,5.49,0,0,1,35.46,57.22Z" fill="#85898e"/></g></svg>