<?xml version="1.0" standalone="no"?>
<!DOCTYPE svg PUBLIC "-//W3C//DTD SVG 20010904//EN"
 "http://www.w3.org/TR/2001/REC-SVG-20010904/DTD/svg10.dtd">
<svg version="1.0" xmlns="http://www.w3.org/2000/svg"
 width="1813.000000pt" height="1813.000000pt" viewBox="0 0 1813.000000 1813.000000"
 preserveAspectRatio="xMidYMid meet">

<g transform="translate(0.000000,1813.000000) scale(0.100000,-0.100000)"
fill="#000000" stroke="none">
<path d="M1723 13072 c-535 -499 -999 -1162 -1286 -1838 -293 -688 -431 -1364
-431 -2114 1 -599 80 -1106 260 -1661 271 -838 727 -1568 1367 -2196 440 -430
878 -739 1431 -1009 627 -305 1209 -464 1931 -525 192 -17 700 -17 875 0 731
68 1408 264 2034 589 158 82 405 226 443 258 l22 19 -370 490 c-203 270 -373
489 -377 488 -4 -1 -63 -34 -131 -73 -934 -537 -2014 -688 -3070 -429 -1172
287 -2181 1091 -2732 2176 -334 658 -491 1427 -439 2148 74 1015 491 1936
1207 2665 89 90 159 169 155 175 -13 21 -733 975 -737 975 -2 0 -70 -62 -152
-138z"/>
<path d="M4010 3325 c0 -2 27 -64 61 -137 367 -805 959 -1537 1686 -2085 1104
-834 2497 -1215 3868 -1057 573 66 1140 227 1678 478 l97 45 -366 488 c-202
268 -374 496 -383 505 -15 15 -22 14 -101 -18 -313 -128 -687 -222 -1080 -271
-226 -28 -735 -25 -965 6 -750 100 -1413 369 -2000 810 -365 274 -714 640
-963 1007 l-41 61 -243 6 c-376 10 -704 51 -1121 141 -130 28 -127 28 -127 21z"/>
</g>
</svg>
