<?xml version="1.0" standalone="no"?>
<!DOCTYPE svg PUBLIC "-//W3C//DTD SVG 20010904//EN"
 "http://www.w3.org/TR/2001/REC-SVG-20010904/DTD/svg10.dtd">
<svg version="1.0" xmlns="http://www.w3.org/2000/svg"
 width="1394.000000pt" height="668.000000pt" viewBox="0 0 1394.000000 668.000000"
 preserveAspectRatio="xMidYMid meet">

<g transform="translate(0.000000,668.000000) scale(0.100000,-0.100000)"
fill="#000000" stroke="none">
<path d="M5187 6073 c-12 -3 -16 -11 -12 -23 3 -10 18 -56 34 -101 l27 -83 12
85 c18 124 17 129 -15 128 -16 -1 -36 -3 -46 -6z"/>
<path d="M4071 5975 c-535 -52 -977 -97 -982 -102 -7 -7 -479 -1336 -479
-1349 0 -2 112 -4 249 -4 l249 0 49 -53 c61 -68 110 -166 119 -240 7 -55 6
-58 -63 -184 -286 -526 -552 -808 -863 -913 -92 -31 -259 -38 -369 -16 -97 20
-207 61 -308 117 l-71 39 -285 -438 c-157 -240 -414 -635 -571 -877 -166 -255
-281 -441 -274 -442 7 -2 107 0 223 5 l210 7 93 275 c51 151 96 278 101 283 5
5 49 -112 103 -275 l95 -283 304 -10 304 -10 -225 -168 c-123 -92 -232 -173
-242 -180 -16 -10 -17 -17 -7 -51 l11 -38 111 7 c450 26 837 128 1202 315 142
73 315 177 315 190 0 12 -55 50 -72 49 -7 0 -119 -76 -248 -168 -129 -92 -236
-164 -238 -160 -2 4 35 133 82 285 69 222 84 280 74 290 -7 7 -114 87 -238
178 -124 92 -224 170 -223 174 2 4 137 9 300 12 l297 5 92 270 c108 315 99
292 108 284 4 -4 48 -128 99 -277 51 -149 95 -273 97 -275 10 -9 620 -16 615
-7 -3 4 11 28 32 52 154 183 376 517 513 773 30 55 58 103 63 106 13 9 -40 43
-55 36 -7 -3 -116 -80 -243 -171 -126 -91 -233 -165 -237 -166 -8 0 14 78 102
355 64 204 68 221 52 233 -251 184 -462 345 -459 349 3 2 139 7 303 11 l297 7
95 283 c52 156 98 280 102 275 4 -4 50 -133 101 -286 l94 -278 70 3 69 3 67
185 c106 291 277 870 267 901 -2 5 -89 -51 -193 -126 -241 -173 -227 -166
-211 -113 7 24 48 155 91 291 42 137 75 250 74 251 -2 2 -101 74 -219 162
-118 87 -228 168 -243 181 l-29 23 164 2 c90 1 227 2 305 3 78 1 144 3 146 6
2 2 39 105 82 229 43 124 80 231 83 238 3 8 -5 12 -24 11 -16 -1 -467 -43
-1003 -94z"/>
<path d="M5446 5758 c-5 -24 -26 -162 -26 -173 0 -3 84 -4 187 -3 l188 3 12
80 c6 44 12 88 12 98 1 16 -14 17 -184 17 -183 0 -185 0 -189 -22z"/>
<path d="M5608 5330 l-156 -119 13 -43 c112 -370 138 -454 145 -461 4 -5 12
11 18 35 48 191 146 681 140 699 -2 5 -73 -45 -160 -111z"/>
<path d="M5266 4788 c-47 -212 -203 -712 -284 -914 l-21 -52 37 -6 c20 -3 67
-6 105 -6 37 0 67 -3 67 -7 -1 -5 -73 -62 -161 -128 l-161 -120 -51 -112 c-28
-61 -54 -110 -58 -107 -10 6 1 -34 67 -246 30 -96 57 -183 60 -192 3 -10 1
-18 -4 -18 -5 0 -67 40 -137 89 l-128 90 -25 -47 c-125 -236 -382 -595 -617
-861 -172 -195 -533 -530 -556 -515 -5 2 -2 -15 5 -38 7 -24 30 -98 51 -166
20 -68 35 -126 32 -129 -4 -3 -67 38 -143 90 -116 82 -138 94 -150 82 -64 -63
-516 -311 -704 -384 -304 -120 -631 -202 -902 -226 -43 -4 -78 -10 -78 -14 0
-4 18 -61 40 -126 42 -124 46 -145 31 -145 -5 0 -95 61 -201 136 l-192 136
-66 5 c-37 2 -69 6 -73 9 -4 2 -99 -61 -213 -141 -188 -133 -226 -156 -226
-139 0 3 22 79 49 168 27 88 63 206 79 261 16 55 33 107 36 116 5 11 -42 51
-186 158 -176 131 -193 141 -200 122 -4 -12 -26 -48 -48 -81 -22 -33 -43 -66
-46 -74 -4 -10 22 -21 105 -42 l110 -29 7 -40 c3 -22 19 -77 34 -121 l28 -82
-70 20 c-38 11 -95 28 -126 39 -30 11 -59 16 -63 12 -7 -9 -109 -329 -109
-343 0 -11 89 -38 245 -75 61 -15 117 -29 125 -32 8 -4 29 -7 45 -9 17 -1 71
-9 120 -18 50 -8 137 -21 195 -28 139 -17 611 -17 755 0 747 89 1405 377 2022
886 145 121 455 432 583 586 208 250 380 497 550 785 100 170 317 609 394 797
121 294 264 716 342 1012 l18 70 -30 23 c-32 25 -284 203 -287 203 -1 0 -11
-37 -21 -82z"/>
<path d="M5986 4239 c-142 -43 -259 -79 -261 -81 -8 -9 -116 -209 -217 -403
-306 -585 -569 -1188 -771 -1770 -80 -230 -171 -515 -165 -520 3 -4 231 -35
254 -35 6 0 74 68 150 151 698 760 2000 1705 2738 1988 158 60 305 77 292 33
-3 -9 -15 -55 -26 -102 -34 -135 -74 -272 -185 -625 -199 -631 -242 -819 -252
-1080 -8 -227 23 -346 97 -372 45 -15 126 -15 168 0 20 7 164 140 380 348 479
464 724 688 1060 966 607 506 1116 793 1402 793 41 0 52 -4 73 -30 55 -65 48
-173 -39 -615 -64 -327 -91 -503 -100 -670 -16 -294 51 -529 189 -667 104
-104 193 -138 351 -138 160 1 277 38 546 171 563 279 1005 643 1919 1578 l321
328 -15 119 c-21 165 -25 185 -35 179 -5 -3 -11 -19 -15 -36 -20 -92 -270
-394 -600 -725 -831 -833 -1625 -1364 -1923 -1286 -104 28 -222 140 -260 247
-22 65 -22 245 1 371 9 50 50 228 91 395 111 450 121 507 121 734 -1 164 -3
198 -20 245 -20 54 -21 55 -75 68 -90 23 -325 19 -445 -6 -546 -116 -1250
-545 -2119 -1291 -186 -160 -364 -318 -470 -420 l-68 -66 6 65 c10 108 51 256
166 604 60 182 121 374 135 426 86 323 95 579 26 734 -16 38 -29 51 -68 69
-70 32 -212 29 -346 -7 -459 -123 -1249 -583 -2362 -1375 -143 -101 -275 -196
-293 -209 l-33 -25 7 29 c18 79 90 282 145 410 82 193 200 432 411 829 203
382 380 733 376 745 -2 4 -119 -28 -262 -71z"/>
<path d="M3522 2020 c-111 -82 -202 -153 -202 -158 0 -19 22 -72 31 -72 4 0
61 48 125 108 123 113 273 272 257 272 -5 0 -100 -67 -211 -150z"/>
</g>
</svg>
